<svg xmlns="http://www.w3.org/2000/svg" width="20" height="16.25" viewBox="0 0 20 16.25">
  <path id="Path_214" data-name="Path 214" d="M-8.125-15.625A1.876,1.876,0,0,0-10-13.75a1.876,1.876,0,0,0,1.875,1.875A1.876,1.876,0,0,0-6.25-13.75,1.876,1.876,0,0,0-8.125-15.625Zm0,6.25A1.876,1.876,0,0,0-10-7.5,1.876,1.876,0,0,0-8.125-5.625,1.876,1.876,0,0,0-6.25-7.5,1.876,1.876,0,0,0-8.125-9.375Zm0,6.25A1.876,1.876,0,0,0-10-1.25,1.876,1.876,0,0,0-8.125.625,1.876,1.876,0,0,0-6.25-1.25,1.876,1.876,0,0,0-8.125-3.125Zm17.5.625h-12.5a.625.625,0,0,0-.625.625v1.25A.625.625,0,0,0-3.125,0h12.5A.625.625,0,0,0,10-.625v-1.25A.625.625,0,0,0,9.375-2.5Zm0-12.5h-12.5a.625.625,0,0,0-.625.625v1.25a.625.625,0,0,0,.625.625h12.5A.625.625,0,0,0,10-13.125v-1.25A.625.625,0,0,0,9.375-15Zm0,6.25h-12.5a.625.625,0,0,0-.625.625v1.25a.625.625,0,0,0,.625.625h12.5A.625.625,0,0,0,10-6.875v-1.25A.625.625,0,0,0,9.375-8.75Z" transform="translate(10 15.625)" fill="#b1bad0"/>
</svg>
