<svg xmlns="http://www.w3.org/2000/svg" width="92.664" height="27.527" viewBox="0 0 92.664 27.527"><defs><style>.a{fill:#5379f5;}.b{fill:#fff;}</style></defs><path class="a" d="M8,0H26.681a0,0,0,0,1,0,0V19.348a8,8,0,0,1-8,8H0a0,0,0,0,1,0,0V8A8,8,0,0,1,8,0Z" transform="translate(0 0.179)"/><path class="b" d="M17.146-11.373A4.207,4.207,0,0,1,16.137-8.7L9.088-.038A4.106,4.106,0,0,1,5.876,1.716H3.07L4.177-10.945H-.9L.735-13.708H6.041a2.134,2.134,0,0,1,1.491.548,1.8,1.8,0,0,1,.6,1.392q0,.11-.011.219L6.984-.4l6.709-8.364a3.062,3.062,0,0,1-1.7-.915,2.393,2.393,0,0,1-.674-1.694,2.418,2.418,0,0,1,.855-1.858A2.966,2.966,0,0,1,14.23-14a2.968,2.968,0,0,1,2.072.778A2.388,2.388,0,0,1,17.146-11.373Z" transform="translate(5.503 19.612)"/><path class="a" d="M13.574-13.621h2.116V1.694H13.782L3.609-10.091V1.694H1.5V-13.621H3.313L13.574-1.738Zm7.685,1.951V-7h6.271v1.962H21.258V-.28h6.7V1.694H19.066V-13.621h8.682v1.951Zm18.483-1.951h2.083L46.089-3.064l4.177-10.557h2.182l-6.194,15.4h-.471l-5.01-12.475L35.718,1.781h-.471l-6.172-15.4h2.2L35.5-3.064Zm21.816.877v2.489a5.049,5.049,0,0,0-3.585-1.59,2.566,2.566,0,0,0-1.639.482,1.566,1.566,0,0,0-.608,1.294,2.422,2.422,0,0,0,.159.91,2.722,2.722,0,0,0,.707.9,9.3,9.3,0,0,0,1.644,1.129A16.544,16.544,0,0,1,60.7-5.459a4.138,4.138,0,0,1,1.157,1.5A4.869,4.869,0,0,1,62.171-2.1a3.769,3.769,0,0,1-.565,2.028,3.965,3.965,0,0,1-1.573,1.436,4.928,4.928,0,0,1-2.313.526A6.83,6.83,0,0,1,53.587.477V-2.308a5.82,5.82,0,0,0,1.88,1.666A4.65,4.65,0,0,0,57.72-.06a2.328,2.328,0,0,0,1.606-.57,1.851,1.851,0,0,0,.641-1.447,2.372,2.372,0,0,0-.214-1.03,3.379,3.379,0,0,0-.932-1.036,18.066,18.066,0,0,0-2.176-1.442,7.469,7.469,0,0,1-2.417-2A4.113,4.113,0,0,1,53.521-10a3.434,3.434,0,0,1,.587-1.951,3.96,3.96,0,0,1,1.606-1.37,5.27,5.27,0,0,1,2.324-.493A6.284,6.284,0,0,1,61.557-12.744Z" transform="translate(30.494 19.635)"/></svg>